<svg width="100" height="100" viewBox="0 0 100 100" xmlns="http://www.w3.org/2000/svg" fill="none">
  <g clip-path="url(#clip0)">
    <!-- Cloud -->
    <circle cx="50" cy="50" r="20" fill="#29B6F6"/>
    <circle cx="35" cy="55" r="15" fill="#29B6F6"/>
    <circle cx="65" cy="55" r="15" fill="#29B6F6"/>
    <circle cx="40" cy="65" r="12" fill="#29B6F6"/>
    <circle cx="60" cy="65" r="12" fill="#29B6F6"/>
    <!-- Raindrops -->
    <path d="M35 78 Q35 90 32 90 Q29 90 29 78 Q29 72 32 72 Q35 72 35 78Z" fill="#01579B"/>
    <path d="M50 80 Q50 92 47 92 Q44 92 44 80 Q44 74 47 74 Q50 74 50 80Z" fill="#01579B"/>
    <path d="M65 78 Q65 90 62 90 Q59 90 59 78 Q59 72 62 72 Q65 72 65 78Z" fill="#01579B"/>
  </g>
  <defs>
    <clipPath id="clip0">
      <rect width="100" height="100"/>
    </clipPath>
  </defs>
</svg>
